<svg width="982" height="479" viewBox="0 0 982 479" fill="none" xmlns="http://www.w3.org/2000/svg">
<path d="M0 0H982V479H0V0Z" fill="white"/>
<path fill-rule="evenodd" clip-rule="evenodd" d="M78.1362 120.387V149.773H113.418H148.699V223.607V297.44H187.288H225.877V223.607V149.773H261.159H296.44V120.387V91H187.288H78.1362V120.387ZM383.174 194.22V297.44H484.608H586.042V268.425V239.41L523.013 239.223L459.984 239.035L459.778 229.668L459.573 220.301H518.397H577.222V194.22V168.14H518.419H459.617V158.956V149.773H522.829H586.042V120.387V91H484.608H383.174V194.22ZM676.451 194.22V297.44H712.835H749.219V262.544V227.647H781.56H813.901V262.544V297.44H850.653H887.404V194.22V91H850.653H813.901V126.264V161.528H781.56H749.219V126.264V91H712.835H676.451V194.22ZM48 386.702V421.598H484.24H920.481V387.186V352.774L904.494 352.292C895.701 352.026 699.392 351.808 468.253 351.807L48 351.805V386.702Z" fill="black"/>
<path d="M48 352H920V422H48V352Z" fill="#E83441"/>
<g clip-path="url(#clip0_314_21936)">
<path d="M845.528 386V356.909H857.006C859.203 356.909 861.078 357.302 862.631 358.088C864.193 358.865 865.382 359.968 866.196 361.398C867.02 362.818 867.432 364.49 867.432 366.412C867.432 368.344 867.015 370.006 866.182 371.398C865.348 372.78 864.141 373.841 862.56 374.58C860.988 375.318 859.084 375.687 856.849 375.687H849.165V370.744H855.855C857.029 370.744 858.005 370.583 858.781 370.261C859.558 369.939 860.135 369.456 860.514 368.812C860.902 368.169 861.097 367.368 861.097 366.412C861.097 365.446 860.902 364.632 860.514 363.969C860.135 363.306 859.553 362.804 858.767 362.463C857.991 362.113 857.01 361.937 855.827 361.937H851.679V386H845.528ZM861.239 372.761L868.469 386H861.679L854.605 372.761H861.239Z" fill="black"/>
<path fill-rule="evenodd" clip-rule="evenodd" d="M855 395C867.703 395 878 384.703 878 372C878 359.297 867.703 349 855 349C842.297 349 832 359.297 832 372C832 384.703 842.297 395 855 395ZM855 400C870.464 400 883 387.464 883 372C883 356.536 870.464 344 855 344C839.536 344 827 356.536 827 372C827 387.464 839.536 400 855 400Z" fill="black"/>
</g>
<defs>
<clipPath id="clip0_314_21936">
<rect width="56" height="48" fill="white" transform="translate(827 352)"/>
</clipPath>
</defs>
</svg>
